PathFileType	4	(X/Y/Z)	c:/Users/goper/Files/vsCode/490R/osim_files/C07/C07_Fast_02.trc
DataRate	CameraRate	NumFrames	NumMarkers	Units                	OrigDataRate	OrigDataStartFrame	OrigNumFrames
250.00	250.00	5	36	mm	250.0	1087	1739
                Frame#	Time	LPSIS			LASIS			LTH1			LTH2			LTH3			LTH4			LLFE			LMFE			LSH1			LSH2			LSH3			LSH4			LLMAL			LMMAL			LCAL			LMTP5			LTOE			LMTP1			RPSIS			RASIS			RTH1			RTH2			RTH3			RTH4			RLFE			RMFE			RSH1			RSH2			RSH3			RSH4			RLMAL			RMMAL			RCAL			RMTP1			RTOE			RMTP5		
		X1	Y1	Z1	X2	Y2	Z2	X3	Y3	Z3	X4	Y4	Z4	X5	Y5	Z5	X6	Y6	Z6	X7	Y7	Z7	X8	Y8	Z8	X9	Y9	Z9	X10	Y10	Z10	X11	Y11	Z11	X12	Y12	Z12	X13	Y13	Z13	X14	Y14	Z14	X15	Y15	Z15	X16	Y16	Z16	X17	Y17	Z17	X18	Y18	Z18	X19	Y19	Z19	X20	Y20	Z20	X21	Y21	Z21	X22	Y22	Z22	X23	Y23	Z23	X24	Y24	Z24	X25	Y25	Z25	X26	Y26	Z26	X27	Y27	Z27	X28	Y28	Z28	X29	Y29	Z29	X30	Y30	Z30	X31	Y31	Z31	X32	Y32	Z32	X33	Y33	Z33	X34	Y34	Z34	X35	Y35	Z35	X36	Y36	Z36

1087	4.34400	-2134.44263	995.40759	276.18365	-2300.28931	980.73334	361.98761	-2290.51465	773.26154	399.37323	-2329.85132	704.22955	399.70950	-2365.67334	638.18817	388.88754	-2400.83691	744.07825	387.82812	-2380.79736	516.25769	355.72751	-2388.35449	525.69946	365.27646	-2268.75952	412.26233	371.21262	-2275.37451	300.26599	364.71790	0.00000	0.00000	0.00000	-2271.37939	357.03958	357.34561	-2107.50952	259.98062	314.78305	-2146.95068	250.53891	246.65227	-2029.57251	259.76291	259.17773	-2128.62378	118.56559	352.80237	-2179.29028	80.32043	304.27176	-2150.27734	87.71226	250.91370	-2144.16309	1012.00421	177.05843	-2312.84326	993.20947	108.33488	-2283.56494	837.27118	45.34206	-2289.56152	757.95380	49.13111	0.00000	0.00000	0.00000	-2360.12744	766.27917	85.30609	-2289.22144	499.17987	94.43591	-2279.08447	509.13480	204.69908	-2217.36206	319.65363	80.82918	-2242.63208	269.53128	80.93494	-2277.58667	317.93283	86.23338	-2272.79028	273.15353	90.41156	-2198.90283	102.40821	127.86237	-2223.98413	108.04962	206.45660	-2143.28027	50.16985	175.00034	-2354.49536	39.25164	200.41885	-2378.74268	51.12941	150.34602	-2330.11450	39.53018	92.37645
1088	4.34800	-2137.58911	995.87921	276.42636	-2304.38867	981.61682	361.73987	-2296.15405	774.41589	399.39346	-2335.96436	705.62427	399.52017	-2372.11499	639.75977	388.53168	-2406.62329	745.99152	387.38196	-2387.16553	516.90442	353.78320	-2395.51880	527.43329	364.61295	-2276.73511	410.23196	370.15848	-2284.16943	300.50031	364.23059	0.00000	0.00000	0.00000	-2279.62451	355.07843	355.54895	-2119.04150	256.75787	314.61359	-2158.15967	248.59077	246.13330	-2040.42310	255.10382	259.46198	-2144.39404	116.71201	352.45621	-2194.44604	78.93987	303.25809	-2164.92847	85.96252	249.87917	-2150.33374	1012.88397	177.32964	-2316.61108	993.46564	108.08377	-2285.96753	838.09247	44.48121	0.00000	0.00000	0.00000	0.00000	0.00000	0.00000	-2362.28540	766.13953	84.98887	-2289.37671	499.40442	94.33726	-2279.87134	509.18436	204.66069	-2217.29614	319.86685	80.92969	-2242.49512	269.80966	80.93305	-2277.45483	318.17889	86.14983	-2272.73071	273.44125	90.34472	-2198.87402	102.62775	127.97311	-2224.20557	108.26147	206.56438	-2143.44849	50.19454	175.16919	-2354.47192	39.12214	200.50258	-2378.74463	50.98359	150.39029	-2330.09692	39.52445	92.35281
1089	4.35200	-2142.81421	996.75854	276.63980	-2308.62549	982.54718	361.55380	-2301.81885	775.57355	399.43176	-2342.02686	707.03748	399.37274	-2378.61694	641.37573	388.21756	-2412.35156	747.93713	386.88889	-2393.40796	517.49023	351.77594	-2402.77051	529.14429	364.00919	-2285.86597	408.91443	370.08871	-2292.98730	300.73526	363.74182	0.00000	0.00000	0.00000	-2291.59009	354.87552	355.81528	-2130.28906	253.55147	314.38440	-2169.08789	246.46185	245.56908	-2051.40845	250.31558	259.63699	-2158.16138	113.55360	351.23413	-2209.77344	77.56046	302.33661	-2179.60815	84.15541	248.76489	-2154.64502	1013.26190	177.71892	-2320.32642	993.63330	107.80187	-2286.47852	837.90094	45.11025	0.00000	0.00000	0.00000	0.00000	0.00000	0.00000	-2364.22510	765.93231	84.66769	-2289.47314	499.66141	94.23219	-2280.58667	509.25137	204.64464	-2217.23804	320.12106	81.03268	-2242.38574	270.07938	80.96293	-2277.27173	318.41949	86.04179	-2272.59473	273.71002	90.25150	-2198.87207	102.89203	128.11005	-2224.41357	108.46383	206.66922	-2143.52075	50.24450	175.29883	-2354.51831	39.07096	200.57330	-2378.67944	50.68298	150.25969	-2330.08105	39.50519	92.36785
1090	4.35600	-2146.90942	997.44556	276.79489	-2312.73193	983.29645	361.30270	-2307.49902	776.72839	399.48712	-2347.94141	708.34515	399.20584	-2387.62842	644.39386	389.02225	-2417.93188	749.79944	386.41168	-2399.52808	518.01672	349.70883	-2409.91919	530.92188	363.48318	-2295.12476	407.43896	370.08069	-2301.82764	300.97076	363.25174	0.00000	0.00000	0.00000	-2301.72583	353.80688	355.10022	-2141.81494	250.11769	314.15100	-2180.38623	244.24829	245.04195	-2062.57568	245.31790	259.85715	-2173.96143	111.62180	350.82492	-2225.24756	76.40930	301.07150	-2194.49219	82.35072	247.76314	-2157.14453	1013.88110	177.32109	-2324.05396	993.77832	107.49654	-2292.11987	837.99121	45.66202	0.00000	0.00000	0.00000	0.00000	0.00000	0.00000	-2366.32202	765.66980	84.27166	-2289.55981	499.89938	94.15553	-2281.28711	509.34680	204.61763	-2217.20288	320.44205	81.14611	-2242.20435	270.37988	81.01126	-2277.18530	318.72464	85.99068	-2272.51904	273.95435	90.19302	-2198.80835	103.10693	128.20235	-2224.59644	108.66498	206.77773	-2143.59595	50.29625	175.39668	-2354.49438	39.01519	200.57162	-2378.71680	50.66331	150.23013	-2330.07886	39.50518	92.36066
1091	4.36000	-2150.80762	998.19550	276.96332	-2316.72192	984.03241	361.04987	-2313.18384	777.87439	399.55872	-2353.91724	709.67719	399.04956	-2393.92603	645.97559	388.65677	-2423.54810	751.55225	385.91513	-2405.53027	518.48553	347.58499	-2417.07935	532.55804	363.01840	-2304.25391	405.97330	370.04706	-2310.68945	301.20685	362.76035	0.00000	0.00000	0.00000	-2311.85669	352.67752	354.31186	-2153.12598	246.77623	313.78076	-2191.55078	241.95415	244.52641	-2073.76929	240.23006	259.98090	-2188.51416	108.90157	349.58917	-2240.88770	75.30148	299.92862	-2209.53003	80.57949	246.69408	-2160.96289	1014.45844	177.32254	-2327.71582	993.88226	107.27108	-2294.58569	838.26355	45.63684	0.00000	0.00000	0.00000	0.00000	0.00000	0.00000	-2368.70361	765.37775	83.80688	-2289.70215	500.12833	94.12201	-2284.06323	510.64066	205.45695	-2217.15381	320.73169	81.35655	-2242.00293	270.67429	81.04727	-2277.04565	319.00375	85.91180	-2272.32397	274.22659	90.11697	-2198.66675	103.17293	128.26112	-2224.73169	108.80598	206.90135	-2143.69458	50.42892	175.50394	-2354.55591	39.02740	200.62219	-2378.74292	50.67750	150.24608	-2330.07959	39.48743	92.38080
